<?xml version="1.0" standalone="no"?>
<!DOCTYPE svg PUBLIC "-//W3C//DTD SVG 20010904//EN"
 "http://www.w3.org/TR/2001/REC-SVG-20010904/DTD/svg10.dtd">
<svg version="1.0" xmlns="http://www.w3.org/2000/svg"
 width="512.000000pt" height="512.000000pt" viewBox="0 0 512.000000 512.000000"
 preserveAspectRatio="xMidYMid meet">

<g transform="translate(0.000000,512.000000) scale(0.100000,-0.100000)"
fill="#000000" stroke="none">
<path d="M2279 5111 c-44 -14 -74 -39 -97 -80 -33 -58 -28 -107 18 -210 22
-49 40 -94 40 -101 0 -7 -75 -136 -166 -287 -210 -348 -217 -363 -222 -479 -7
-151 36 -261 139 -359 78 -75 167 -116 267 -124 l77 -6 3 -41 3 -41 -70 -6
c-120 -10 -171 -55 -171 -152 0 -46 13 -71 174 -350 152 -263 178 -303 212
-322 21 -13 55 -23 74 -23 19 0 53 10 74 23 34 19 60 59 212 322 161 279 174
304 174 350 0 97 -51 142 -171 152 l-70 6 3 41 3 41 77 6 c226 19 408 219 408
449 0 84 -16 110 -69 110 -53 0 -68 -21 -73 -106 -12 -169 -129 -294 -292
-311 l-54 -6 -4 140 c-3 133 -4 142 -31 181 -15 23 -46 54 -69 69 -36 24 -51
28 -117 28 -66 0 -82 -4 -118 -28 -24 -15 -55 -46 -70 -69 -27 -39 -28 -48
-31 -181 l-4 -140 -58 6 c-114 12 -209 80 -258 185 -22 47 -27 70 -26 132 1
45 7 89 17 110 9 19 92 161 185 315 l170 280 190 3 190 2 119 -196 c65 -108
126 -205 136 -215 27 -29 81 -25 107 8 14 18 19 35 15 51 -3 13 -60 112 -125
221 -66 109 -120 204 -120 211 0 7 18 52 40 101 47 104 51 152 18 211 -27 48
-71 76 -129 84 -38 5 -55 0 -123 -35 -104 -54 -149 -55 -240 -6 -71 37 -125
49 -167 36z m107 -171 c119 -61 229 -60 352 2 41 20 66 28 72 22 7 -7 -3 -39
-27 -92 l-36 -82 -187 0 -187 0 -36 81 c-49 110 -45 117 49 69z m232 -1087
c22 -24 23 -32 22 -172 -1 -80 -1 -206 -1 -279 1 -167 0 -165 141 -172 l99 -5
-157 -272 c-86 -150 -159 -273 -162 -273 -3 0 -76 123 -162 273 l-157 272 99
5 c141 7 140 5 141 172 0 73 0 197 -1 276 -1 117 2 148 15 168 32 49 82 52
123 7z"/>
<path d="M1285 4186 c-269 -104 -502 -304 -639 -549 l-36 -64 -75 5 c-88 5
-122 -6 -165 -55 -25 -28 -30 -42 -30 -86 0 -47 15 -81 158 -362 181 -355 184
-360 284 -353 44 3 64 10 83 28 33 31 374 553 393 602 21 54 9 104 -38 150
-24 25 -47 38 -64 38 -14 0 -26 4 -26 9 0 12 87 91 140 128 53 36 151 86 200
102 82 26 150 118 150 202 0 178 -157 274 -335 205z m169 -146 c11 -11 19 -33
19 -50 0 -42 -23 -62 -116 -100 -154 -64 -310 -189 -401 -323 -73 -106 -50
-151 82 -164 l83 -8 -171 -262 c-95 -145 -175 -263 -179 -263 -5 0 -281 543
-281 555 0 2 48 6 107 7 l108 3 45 85 c62 117 102 173 184 259 116 121 211
186 374 257 82 37 112 37 146 4z"/>
<path d="M3625 4190 c-138 -67 -168 -248 -59 -356 22 -23 58 -47 80 -54 53
-17 149 -66 204 -103 53 -37 140 -116 140 -128 0 -5 -12 -9 -26 -9 -17 0 -40
-13 -64 -38 -47 -46 -59 -96 -38 -150 18 -47 351 -558 386 -594 50 -50 148
-52 202 -3 10 9 88 155 174 324 140 278 156 314 156 359 0 43 -5 57 -30 85
-43 49 -77 60 -165 55 l-75 -5 -36 64 c-113 203 -306 388 -514 493 -161 81
-256 98 -335 60z m232 -175 c125 -59 193 -105 292 -200 96 -92 155 -171 220
-294 l46 -86 108 -3 c59 -1 107 -5 107 -7 0 -12 -276 -555 -281 -555 -4 0 -84
118 -178 263 l-172 262 83 8 c132 13 155 58 82 164 -90 132 -248 260 -400 322
-93 39 -117 59 -117 100 0 50 43 85 93 75 14 -3 66 -25 117 -49z"/>
<path d="M820 2444 c-54 -22 -67 -84 -27 -122 22 -21 32 -22 208 -22 198 -1
232 -7 294 -54 19 -15 47 -48 62 -74 24 -41 28 -59 31 -149 l4 -103 -71 0 -71
0 0 86 c0 84 -1 87 -34 120 l-34 34 -271 0 c-183 0 -278 -4 -295 -12 -44 -19
-59 -56 -64 -145 l-5 -83 -63 0 -64 0 0 95 c0 120 13 152 90 227 68 65 75 94
35 133 -34 35 -65 31 -123 -14 -58 -47 -83 -79 -119 -158 -23 -49 -28 -76 -31
-169 l-4 -111 -61 -7 c-103 -10 -172 -65 -197 -155 -13 -47 -13 -235 0 -282
16 -57 52 -102 103 -129 l47 -25 0 -559 c0 -395 3 -570 12 -597 15 -51 69
-114 122 -142 41 -22 42 -22 611 -22 570 0 570 0 612 22 22 12 55 39 72 60 60
73 61 81 61 687 l0 551 39 21 39 21 46 -21 46 -21 0 -571 0 -570 26 -52 c30
-61 74 -98 140 -118 69 -21 1079 -21 1148 0 66 20 110 57 140 118 l26 52 0
570 0 571 46 21 46 21 38 -21 39 -21 3 -283 3 -284 24 -19 c32 -26 67 -24 96
6 l25 24 0 276 0 275 595 0 595 0 0 -560 0 -561 -26 -24 -27 -25 -539 0 -540
0 -29 29 c-29 29 -29 30 -29 148 0 144 -5 162 -43 178 -39 16 -80 3 -96 -31
-17 -38 -14 -240 4 -302 19 -62 62 -115 119 -145 41 -22 44 -22 611 -22 569 0
570 0 611 22 53 28 107 91 122 142 9 27 12 202 12 597 l0 559 47 25 c51 27 87
72 103 129 13 47 13 235 0 282 -25 90 -94 145 -197 155 l-61 7 -4 113 c-4 105
-7 117 -41 188 -61 123 -163 196 -303 218 -105 16 -587 5 -648 -15 -69 -23
-150 -81 -192 -139 -56 -76 -76 -138 -81 -259 l-6 -107 -57 -6 c-31 -4 -73
-15 -93 -25 -36 -18 -38 -18 -75 0 -20 10 -65 22 -99 25 l-61 7 -4 116 c-3
100 -7 124 -30 173 -55 118 -172 207 -298 227 -82 14 -515 14 -595 1 -131 -21
-248 -110 -303 -228 -23 -49 -27 -73 -30 -173 l-4 -116 -61 -7 c-34 -3 -79
-15 -99 -25 -37 -18 -39 -18 -75 0 -20 10 -62 21 -93 25 l-57 6 -6 107 c-8
164 -59 269 -170 345 -86 59 -128 68 -342 72 -104 2 -197 1 -205 -2z m2059
-159 c61 -21 104 -58 137 -117 24 -46 29 -66 32 -150 l4 -98 -71 0 -71 0 0 75
c0 48 -6 87 -15 105 -29 57 -48 60 -335 60 -287 0 -306 -3 -335 -60 -9 -18
-15 -57 -15 -105 l0 -75 -71 0 -71 0 4 98 c3 84 8 104 32 150 32 57 76 96 134
117 55 20 583 21 641 0z m1676 -9 c55 -25 110 -81 131 -132 9 -21 14 -70 14
-129 l0 -95 -64 0 -63 0 -5 83 c-5 89 -20 126 -64 145 -17 8 -112 12 -295 12
l-271 0 -34 -34 c-33 -33 -34 -36 -34 -120 l0 -86 -71 0 -71 0 4 103 c3 90 7
108 31 149 15 26 43 59 62 74 66 50 89 53 395 53 278 1 286 0 335 -23z m-3447
-308 l3 -48 -205 0 -206 0 0 43 c0 24 3 47 7 51 4 3 95 5 202 4 l196 -3 3 -47z
m1652 2 l0 -50 -200 0 -200 0 0 50 0 50 200 0 200 0 0 -50z m1658 -2 l3 -48
-205 0 -206 0 0 43 c0 24 3 47 7 51 4 3 95 5 202 4 l196 -3 3 -47z m-2778
-218 c18 -18 20 -33 20 -130 0 -97 -2 -112 -20 -130 -20 -20 -33 -20 -737 -20
-653 0 -718 1 -735 17 -15 14 -18 32 -18 131 0 93 3 119 17 134 15 17 51 18
735 18 705 0 718 0 738 -20z m1646 12 c25 -16 34 -55 34 -142 0 -87 -9 -126
-34 -142 -6 -4 -334 -8 -728 -8 -638 0 -718 2 -732 16 -23 23 -23 245 0 268
14 14 94 16 732 16 394 0 722 -4 728 -8z m1666 -9 c15 -14 18 -32 18 -131 0
-93 -3 -119 -17 -134 -15 -17 -51 -18 -735 -18 -705 0 -718 0 -738 20 -18 18
-20 33 -20 130 0 97 2 112 20 130 20 20 33 20 737 20 653 0 718 -1 735 -17z
m-3452 -989 l0 -556 -29 -29 -29 -29 -540 0 -539 0 -27 25 -26 24 0 561 0 560
595 0 595 0 0 -556z m1658 -5 l-3 -561 -28 -24 -28 -24 -539 0 -539 0 -28 24
-28 24 -3 561 -2 561 600 0 600 0 -2 -561z"/>
<path d="M837 1080 c-114 -20 -222 -105 -275 -218 -23 -50 -27 -69 -27 -152 1
-84 4 -102 30 -155 61 -127 177 -205 316 -213 222 -13 392 149 393 373 0 70
-4 90 -31 147 -39 84 -88 137 -161 176 -46 25 -166 56 -192 51 -3 -1 -27 -5
-53 -9z m134 -152 c52 -15 117 -73 140 -122 26 -57 24 -130 -5 -192 -67 -143
-258 -173 -368 -57 -38 40 -58 94 -58 158 0 153 143 258 291 213z"/>
<path d="M2304 1046 c-17 -8 -44 -31 -60 -52 l-29 -37 -3 -229 c-3 -217 -2
-231 18 -273 13 -27 36 -53 58 -67 36 -22 45 -23 272 -23 227 0 236 1 272 23
22 14 45 40 58 67 20 42 21 56 18 273 l-3 229 -29 37 c-47 62 -67 66 -318 66
-165 -1 -231 -4 -254 -14z m456 -336 l0 -200 -200 0 -200 0 0 200 0 200 200 0
200 0 0 -200z"/>
<path d="M4155 1056 c-45 -20 -61 -43 -198 -282 -108 -188 -127 -227 -127
-263 0 -58 25 -106 69 -133 35 -22 45 -23 306 -26 265 -3 271 -2 315 20 56 29
84 75 83 138 -1 40 -16 73 -125 260 -158 274 -146 255 -189 279 -42 24 -90 26
-134 7z m188 -343 c65 -113 116 -207 114 -209 -2 -3 -113 -3 -245 -2 l-241 3
81 140 c44 77 98 170 120 208 21 37 42 67 46 67 4 -1 60 -93 125 -207z"/>
</g>
</svg>
