<?xml version="1.0" standalone="no"?>
<!DOCTYPE svg PUBLIC "-//W3C//DTD SVG 20010904//EN"
 "http://www.w3.org/TR/2001/REC-SVG-20010904/DTD/svg10.dtd">
<svg version="1.0" xmlns="http://www.w3.org/2000/svg"
 width="512.000000pt" height="512.000000pt" viewBox="0 0 512.000000 512.000000"
 preserveAspectRatio="xMidYMid meet">

<g transform="translate(0.000000,512.000000) scale(0.100000,-0.100000)"
fill="#000000" stroke="none">
<path d="M385 4706 c-129 -32 -231 -122 -276 -246 -17 -47 -26 -59 -53 -68
-18 -7 -38 -24 -44 -38 -8 -17 -12 -118 -12 -320 l0 -296 29 -29 c17 -16 40
-29 54 -29 14 0 35 -9 48 -19 l24 -19 5 -1184 5 -1183 23 -58 c63 -154 192
-243 370 -255 l82 -5 0 -83 c0 -99 12 -130 56 -146 27 -9 36 -21 53 -68 92
-252 402 -337 620 -172 49 38 98 107 122 172 17 47 26 59 53 68 44 16 56 47
56 147 l0 85 960 0 960 0 0 -85 c0 -100 12 -131 56 -147 27 -9 36 -21 53 -68
92 -252 402 -337 620 -172 49 38 98 107 122 172 17 47 26 59 53 68 44 16 56
47 56 147 l0 85 55 0 c73 0 150 17 209 47 59 30 137 106 165 161 52 103 51 69
51 1310 l0 1153 25 24 c13 14 36 25 50 25 16 0 38 12 56 29 l29 29 0 296 c0
202 -4 303 -12 320 -6 14 -26 31 -44 38 -27 9 -36 21 -53 68 -47 128 -154 220
-289 249 -80 17 -4268 14 -4337 -3z m4350 -165 c46 -21 99 -70 121 -112 l15
-29 -2311 0 -2311 0 15 29 c22 42 75 91 121 112 38 18 129 19 2175 19 2046 0
2137 -1 2175 -19z m225 -341 l0 -40 -2400 0 -2400 0 0 40 0 40 2400 0 2400 0
0 -40z m-4080 -285 c0 -46 5 -95 11 -109 17 -36 60 -51 95 -34 41 19 54 53 54
146 l0 82 240 0 240 0 0 -85 c0 -46 5 -95 11 -109 17 -36 60 -51 95 -34 41 19
54 53 54 146 l0 82 240 0 240 0 0 -85 c0 -46 5 -95 11 -109 17 -36 60 -51 95
-34 41 19 54 53 54 146 l0 82 240 0 240 0 0 -85 c0 -46 5 -95 11 -109 17 -36
60 -51 95 -34 41 19 54 53 54 146 l0 82 240 0 240 0 0 -85 c0 -46 5 -95 11
-109 17 -36 60 -51 95 -34 41 19 54 53 54 146 l0 82 240 0 240 0 0 -85 c0 -46
5 -95 11 -109 17 -36 60 -51 95 -34 41 19 54 53 54 146 l0 82 360 0 360 0 0
-89 c0 -82 -2 -90 -21 -96 -33 -11 -88 -65 -112 -109 l-22 -41 -5 -1191 -5
-1191 -30 -49 c-19 -30 -49 -60 -79 -79 l-49 -30 -2077 0 -2077 0 -49 30 c-30
19 -60 49 -79 79 l-30 49 -5 1191 -5 1191 -22 41 c-24 44 -79 98 -112 109 -19
6 -21 14 -21 96 l0 89 360 0 360 0 0 -85z m560 -2995 l0 -40 -320 0 -320 0 0
40 0 40 320 0 320 0 0 -40z m2880 0 l0 -40 -320 0 -320 0 0 40 0 40 320 0 320
0 0 -40z m-2981 -222 c-75 -141 -247 -182 -366 -88 -32 25 -73 79 -73 97 0 10
47 13 225 13 l226 0 -12 -22z m2877 -7 c-75 -144 -271 -175 -384 -61 -18 17
-39 45 -48 61 l-15 29 231 0 231 0 -15 -29z"/>
<path d="M2790 3080 c-11 -11 -20 -32 -20 -46 0 -24 -3 -26 -27 -20 -155 33
-277 29 -399 -14 -148 -51 -284 -172 -353 -311 -60 -122 -86 -264 -60 -323 22
-48 92 -55 128 -12 7 9 17 48 21 88 16 143 80 258 187 340 97 73 157 92 290
93 61 0 114 -3 118 -7 4 -4 0 -17 -9 -30 -23 -32 -20 -65 9 -93 23 -24 29 -25
163 -25 126 0 142 2 166 21 17 14 26 30 26 50 0 38 -123 285 -149 299 -31 16
-69 12 -91 -10z"/>
<path d="M3065 2455 c-19 -18 -25 -35 -25 -67 0 -213 -177 -418 -395 -459 -56
-10 -174 -7 -195 6 -4 3 -2 18 6 34 9 18 12 40 8 56 -12 48 -36 55 -191 55
-130 0 -145 -2 -163 -20 -32 -32 -24 -70 39 -203 58 -124 85 -157 127 -157 34
0 74 37 74 70 l0 28 58 -15 c77 -21 230 -21 311 1 263 71 443 285 476 567 7
65 -6 102 -42 118 -37 17 -62 13 -88 -14z"/>
</g>
</svg>
