<svg width="32" height="32" viewBox="0 0 32 32" fill="none" xmlns="http://www.w3.org/2000/svg">
<g clip-path="url(#clip0_2578_3090)">
<path d="M11.9993 6.66602H9.33268C8.62544 6.66602 7.94716 6.94697 7.44706 7.44706C6.94697 7.94716 6.66602 8.62544 6.66602 9.33268V25.3327C6.66602 26.0399 6.94697 26.7182 7.44706 27.2183C7.94716 27.7184 8.62544 27.9993 9.33268 27.9993H22.666C23.3733 27.9993 24.0515 27.7184 24.5516 27.2183C25.0517 26.7182 25.3327 26.0399 25.3327 25.3327V9.33268C25.3327 8.62544 25.0517 7.94716 24.5516 7.44706C24.0515 6.94697 23.3733 6.66602 22.666 6.66602H19.9993" stroke="#285430" stroke-width="2.75" stroke-linecap="round" stroke-linejoin="round"/>
<path d="M17.3333 4H14.6667C13.1939 4 12 5.19391 12 6.66667C12 8.13943 13.1939 9.33333 14.6667 9.33333H17.3333C18.8061 9.33333 20 8.13943 20 6.66667C20 5.19391 18.8061 4 17.3333 4Z" stroke="#285430" stroke-width="2.75" stroke-linecap="round" stroke-linejoin="round"/>
<path d="M12 16H12.0133" stroke="#285430" stroke-width="2.75" stroke-linecap="round" stroke-linejoin="round"/>
<path d="M17.334 16H20.0007" stroke="#285430" stroke-width="2.75" stroke-linecap="round" stroke-linejoin="round"/>
<path d="M12 21.334H12.0133" stroke="#285430" stroke-width="2.75" stroke-linecap="round" stroke-linejoin="round"/>
<path d="M17.334 21.334H20.0007" stroke="#285430" stroke-width="2.75" stroke-linecap="round" stroke-linejoin="round"/>
</g>
<defs>
<clipPath id="clip0_2578_3090">
<rect width="32" height="32" fill="white"/>
</clipPath>
</defs>
</svg>
