<?xml version="1.0" standalone="no"?>
<!DOCTYPE svg PUBLIC "-//W3C//DTD SVG 20010904//EN"
 "http://www.w3.org/TR/2001/REC-SVG-20010904/DTD/svg10.dtd">
<svg version="1.0" xmlns="http://www.w3.org/2000/svg"
 width="512.000000pt" height="512.000000pt" viewBox="0 0 512.000000 512.000000"
 preserveAspectRatio="xMidYMid meet">

<g transform="translate(0.000000,512.000000) scale(0.100000,-0.100000)"
fill="#000000" stroke="none">
<path d="M1893 4741 c-68 -25 -133 -71 -173 -122 -31 -38 -79 -140 -80 -166 0
-7 -7 -13 -15 -13 -8 0 -36 -7 -62 -16 -163 -54 -265 -195 -264 -364 0 -41 4
-90 10 -109 9 -30 7 -37 -15 -64 -64 -77 -100 -197 -88 -294 4 -36 21 -85 44
-130 38 -72 38 -73 23 -115 -10 -30 -14 -71 -11 -138 3 -79 8 -105 31 -152 48
-97 148 -171 254 -187 l45 -6 27 -80 c38 -112 73 -169 157 -251 l73 -72 -39
-26 c-22 -14 -47 -37 -56 -51 -15 -23 -23 -25 -85 -25 l-69 0 0 50 c0 41 -5
56 -29 82 l-29 33 -150 3 -150 4 -6 33 c-4 20 -19 44 -37 59 l-31 26 -370 0
-370 0 -29 -29 c-19 -20 -29 -40 -29 -60 l0 -31 -135 0 c-95 0 -146 -4 -170
-14 -69 -29 -66 36 -63 -1087 l3 -1011 33 -29 32 -29 736 0 736 0 29 29 c16
16 29 36 29 45 0 13 51 16 431 18 l431 3 19 24 c25 30 24 76 -1 101 -19 19
-33 20 -450 20 l-430 0 0 270 c0 257 -1 271 -20 290 -23 23 -68 26 -96 6 -18
-14 -19 -32 -24 -338 l-5 -323 -652 -3 -653 -2 0 940 0 940 110 0 110 0 0 -53
c0 -30 6 -62 15 -73 29 -43 53 -45 433 -42 l362 3 26 27 c21 21 28 39 32 82
l4 56 109 0 109 0 0 -475 c0 -462 1 -476 20 -495 23 -23 68 -26 96 -6 18 14
19 33 24 413 l5 398 65 0 65 0 5 -235 c3 -129 9 -242 13 -251 8 -16 33 -31 70
-43 31 -10 78 19 237 147 114 92 158 122 168 115 9 -8 12 -76 12 -279 0 -256
1 -270 20 -289 27 -27 66 -25 95 5 l25 24 0 264 c0 181 3 266 11 274 8 8 56
-24 180 -124 139 -111 175 -135 203 -136 41 -1 83 25 96 59 6 14 10 126 10
250 l0 224 135 0 135 0 0 -239 0 -239 -91 -4 c-88 -3 -92 -4 -120 -36 l-29
-32 0 -535 0 -535 -80 0 c-67 0 -83 -3 -100 -20 -27 -27 -26 -81 1 -106 20
-18 56 -19 1146 -22 774 -2 1137 1 1164 8 28 8 46 21 59 43 19 31 20 54 20
590 0 619 2 605 -65 633 -19 8 -66 14 -105 14 l-70 0 0 125 c0 112 -2 127 -20
145 -26 26 -81 26 -103 2 -14 -15 -17 -41 -17 -145 l0 -127 -260 0 -260 0 2
357 3 358 255 0 255 0 3 -90 c2 -77 5 -92 23 -107 28 -24 74 -23 99 2 18 18
20 33 20 140 0 133 -10 168 -55 188 -19 9 -225 12 -815 12 l-790 0 -32 -29
c-32 -28 -33 -32 -36 -120 l-4 -91 -137 0 c-135 0 -138 0 -149 24 -5 12 -30
36 -55 51 l-44 28 65 61 c96 90 149 178 181 302 11 40 12 42 60 46 64 6 136
42 188 94 92 92 124 226 87 370 -15 62 -15 63 10 101 67 104 75 249 19 363
-18 36 -42 77 -54 92 -20 24 -21 30 -9 78 18 74 8 175 -23 243 -50 109 -146
188 -266 218 -62 16 -65 18 -77 57 -29 100 -112 193 -212 240 -49 23 -70 27
-152 27 -109 0 -165 -17 -237 -72 l-46 -35 -26 21 c-14 12 -55 36 -91 53 -84
42 -205 50 -287 19z m193 -136 c33 -9 71 -33 108 -65 48 -42 63 -50 97 -50 47
0 84 17 119 55 101 109 287 87 366 -43 21 -35 33 -70 37 -109 8 -73 41 -108
93 -99 17 4 53 2 79 -4 149 -33 229 -194 166 -335 -12 -26 -21 -56 -21 -66 0
-10 25 -43 55 -73 69 -70 94 -141 76 -220 -18 -79 -20 -80 -82 -46 -30 16 -75
32 -101 36 -46 6 -47 7 -53 48 -19 124 -81 213 -183 263 l-57 28 -480 0 -480
0 -51 -27 c-28 -15 -65 -38 -81 -52 -43 -36 -91 -133 -99 -198 l-6 -56 -49 -6
c-26 -4 -73 -20 -103 -36 -54 -28 -56 -28 -66 -9 -19 34 -23 116 -10 165 9 31
31 65 67 104 60 65 63 79 33 158 -26 69 -25 126 4 187 41 89 133 145 238 145
52 0 78 27 78 83 0 52 37 132 78 171 31 29 118 65 158 66 11 0 43 -7 70 -15z
m703 -846 c20 -11 48 -36 61 -56 l25 -37 3 -369 c2 -235 -1 -389 -8 -422 -36
-173 -169 -309 -341 -350 -75 -17 -336 -21 -420 -5 -140 26 -270 127 -333 260
l-31 65 -3 403 c-3 453 -4 449 71 503 l40 29 450 0 c435 0 450 -1 486 -21z
m-1199 -529 c0 -174 -3 -220 -13 -220 -30 0 -114 52 -135 84 -44 65 -52 178
-17 245 26 51 107 108 158 111 4 0 7 -99 7 -220z m1549 173 c91 -69 97 -260
10 -340 -24 -22 -88 -53 -109 -53 -6 0 -10 75 -10 219 l0 219 38 -10 c20 -5
52 -21 71 -35z m-2049 -968 l0 -75 -290 0 -290 0 0 68 c0 38 3 72 7 75 3 4
134 7 290 7 l283 0 0 -75z m2380 -138 c0 -181 5 -198 66 -223 40 -17 240 -19
295 -4 65 18 74 43 77 228 l4 163 81 -3 82 -3 3 -357 2 -358 -390 0 -390 0 0
360 0 360 85 0 85 0 0 -163z m290 38 l0 -125 -70 0 -70 0 0 125 0 125 70 0 70
0 0 -125z m-1034 -30 c3 -6 3 -102 2 -214 l-3 -203 -103 82 -103 83 48 49 48
49 3 113 4 114 50 -31 c28 -17 52 -36 54 -42z m-726 -47 l0 -112 50 -46 50
-47 -100 -79 c-55 -43 -104 -80 -110 -82 -6 -2 -10 70 -10 206 l0 210 48 30
c26 17 53 31 60 31 9 1 12 -28 12 -111z m469 30 l0 -83 -81 -67 -81 -67 -83
71 -84 72 0 78 0 78 165 0 165 0 -1 -82z m961 -868 c0 -265 7 -273 236 -268
142 3 144 3 171 31 l28 27 3 190 3 190 190 0 189 0 0 -495 0 -495 -600 0 -600
0 0 495 0 495 190 0 190 0 0 -170z m290 25 l0 -145 -70 0 -70 0 0 145 0 145
70 0 70 0 0 -145z m1250 -350 l0 -495 -285 0 -285 0 0 495 0 495 285 0 285 0
0 -495z"/>
<path d="M1920 3500 c-17 -17 -20 -33 -20 -109 0 -85 1 -91 26 -110 15 -12 34
-21 44 -21 10 0 29 9 44 21 25 19 26 25 26 113 0 77 -3 96 -18 109 -25 23 -78
21 -102 -3z"/>
<path d="M2590 3493 c-19 -25 -21 -38 -18 -111 3 -74 6 -86 27 -103 13 -10 33
-19 46 -19 13 0 33 9 46 19 21 17 24 29 27 103 3 73 1 86 -18 111 -16 20 -30
27 -55 27 -25 0 -39 -7 -55 -27z"/>
<path d="M2268 3408 c-18 -16 -97 -120 -127 -168 -42 -70 -23 -133 61 -197 96
-72 115 -77 153 -38 45 44 28 88 -57 150 l-27 20 55 74 c60 82 66 110 29 146
-26 27 -62 32 -87 13z"/>
<path d="M2066 2889 c-60 -47 -19 -121 99 -176 51 -24 73 -28 145 -28 76 0 93
4 152 33 106 52 142 110 99 163 -24 30 -81 31 -113 2 -46 -41 -87 -55 -154
-51 -53 3 -72 10 -117 41 -62 43 -75 45 -111 16z"/>
</g>
</svg>
