<?xml version="1.0" standalone="no"?>
<!DOCTYPE svg PUBLIC "-//W3C//DTD SVG 20010904//EN"
 "http://www.w3.org/TR/2001/REC-SVG-20010904/DTD/svg10.dtd">
<svg version="1.0" xmlns="http://www.w3.org/2000/svg"
 width="512.000000pt" height="512.000000pt" viewBox="0 0 512.000000 512.000000"
 preserveAspectRatio="xMidYMid meet">

<g transform="translate(0.000000,512.000000) scale(0.100000,-0.100000)"
fill="#000000" stroke="none">
<path d="M555 4671 c-168 -78 -164 -314 7 -385 33 -14 187 -16 1358 -16 1171
0 1325 2 1358 16 174 72 174 316 0 388 -33 14 -187 16 -1360 16 -1266 0 -1325
-1 -1363 -19z"/>
<path d="M3755 4671 c-49 -23 -89 -64 -109 -113 -14 -33 -16 -221 -16 -1718 0
-924 -3 -1680 -7 -1680 -5 0 -68 63 -140 139 -147 155 -202 191 -284 191 -151
0 -252 -159 -188 -300 29 -64 663 -700 733 -735 61 -31 124 -32 186 -4 64 29
710 675 739 739 47 104 9 222 -88 272 -69 36 -129 37 -197 3 -34 -17 -89 -67
-183 -165 -73 -77 -137 -140 -142 -140 -5 0 -9 694 -9 1683 0 1616 -1 1684
-19 1722 -49 106 -173 154 -276 106z"/>
<path d="M555 3391 c-140 -65 -167 -247 -52 -348 20 -18 54 -37 74 -43 27 -8
367 -10 1148 -8 1103 3 1110 3 1150 24 22 11 54 40 70 63 27 39 30 50 30 121
0 71 -3 82 -30 121 -16 23 -48 52 -70 63 -40 21 -46 21 -1160 23 -1073 3
-1122 2 -1160 -16z"/>
<path d="M555 2111 c-168 -78 -164 -314 7 -385 33 -14 146 -16 935 -16 1009 0
945 -4 1011 75 86 105 50 271 -72 326 -39 18 -87 19 -941 19 -855 0 -902 -1
-940 -19z"/>
<path d="M555 831 c-168 -78 -164 -314 7 -385 33 -14 125 -16 720 -16 643 0
685 2 723 19 165 76 165 306 0 382 -38 17 -79 19 -725 19 -646 0 -687 -2 -725
-19z"/>
</g>
</svg>
