<svg width="32" height="32" viewBox="0 0 32 32" fill="none" xmlns="http://www.w3.org/2000/svg">
<g clip-path="url(#clip0_2578_3002)">
<path d="M12.0007 9.33398H8.00065C7.29341 9.33398 6.61513 9.61494 6.11503 10.115C5.61494 10.6151 5.33398 11.2934 5.33398 12.0007V24.0007C5.33398 24.7079 5.61494 25.3862 6.11503 25.8863C6.61513 26.3864 7.29341 26.6673 8.00065 26.6673H20.0007C20.7079 26.6673 21.3862 26.3864 21.8863 25.8863C22.3864 25.3862 22.6673 24.7079 22.6673 24.0007V20.0007" stroke="#285430" stroke-width="2.75" stroke-linecap="round" stroke-linejoin="round"/>
<path d="M12 19.9997H16L27.3333 8.66632C27.8638 8.13588 28.1618 7.41646 28.1618 6.66632C28.1618 5.91617 27.8638 5.19675 27.3333 4.66632C26.8029 4.13588 26.0835 3.83789 25.3333 3.83789C24.5832 3.83789 23.8638 4.13588 23.3333 4.66632L12 15.9997V19.9997Z" stroke="#285430" stroke-width="2.75" stroke-linecap="round" stroke-linejoin="round"/>
<path d="M21.334 6.66602L25.334 10.666" stroke="#285430" stroke-width="2.75" stroke-linecap="round" stroke-linejoin="round"/>
</g>
<defs>
<clipPath id="clip0_2578_3002">
<rect width="32" height="32" fill="white"/>
</clipPath>
</defs>
</svg>
