<svg width="120" height="120" viewBox="0 0 120 120" fill="none" xmlns="http://www.w3.org/2000/svg">
<g clip-path="url(#clip0_2746_2859)">
<g clip-path="url(#clip1_2746_2859)">
<path d="M71.5 26.1667C71.5 24.8958 71.939 23.6771 72.7204 22.7784C73.5018 21.8798 74.5616 21.375 75.6667 21.375H92.3333C93.4384 21.375 94.4982 21.8798 95.2796 22.7784C96.061 23.6771 96.5 24.8958 96.5 26.1667V30.9583C96.5 32.2292 96.061 33.4479 95.2796 34.3466C94.4982 35.2452 93.4384 35.75 92.3333 35.75H75.6667C74.5616 35.75 73.5018 35.2452 72.7204 34.3466C71.939 33.4479 71.5 32.2292 71.5 30.9583V26.1667Z" stroke="#285430" stroke-width="4" stroke-linecap="round" stroke-linejoin="round"/>
<path d="M75.6667 35.75V40.4458C75.6667 44.6481 73.0251 48.2371 69.4167 48.9271C65.8084 49.6171 63.1667 53.206 63.1667 57.4083V98.0417C63.1667 100.583 64.0447 103.021 65.6075 104.818C67.1703 106.615 69.2899 107.625 71.5001 107.625H96.5001C98.7102 107.625 100.83 106.615 102.393 104.818C103.955 103.021 104.833 100.583 104.833 98.0417V57.4083C104.833 53.206 102.192 49.6171 98.5834 48.9271C96.8374 48.5925 95.2512 47.5567 94.1068 46.0038C92.9624 44.4508 92.334 42.4814 92.3334 40.4458V35.75" stroke="#285430" stroke-width="4" stroke-linecap="round" stroke-linejoin="round"/>
<path d="M63.1667 64.5H104.833" stroke="#285430" stroke-width="3.5" stroke-linecap="round" stroke-linejoin="round"/>
<path d="M63.1667 93.25H104.833" stroke="#285430" stroke-width="3.5" stroke-linecap="round" stroke-linejoin="round"/>
<path d="M79.8333 78.875H88.1666" stroke="#285430" stroke-width="3.5" stroke-linecap="round" stroke-linejoin="round"/>
</g>
<g clip-path="url(#clip2_2746_2859)">
<path d="M24 37.6667C24 36.5616 24.3512 35.5018 24.9763 34.7204C25.6014 33.939 26.4493 33.5 27.3333 33.5H40.6667C41.5507 33.5 42.3986 33.939 43.0237 34.7204C43.6488 35.5018 44 36.5616 44 37.6667V41.8333C44 42.9384 43.6488 43.9982 43.0237 44.7796C42.3986 45.561 41.5507 46 40.6667 46H27.3333C26.4493 46 25.6014 45.561 24.9763 44.7796C24.3512 43.9982 24 42.9384 24 41.8333V37.6667Z" stroke="#285430" stroke-width="4" stroke-linecap="round" stroke-linejoin="round"/>
<path d="M27.3333 46V50.0833C27.3333 53.7375 25.2199 56.8583 22.3333 57.4583C19.4466 58.0583 17.3333 61.1792 17.3333 64.8333V100.167C17.3333 102.377 18.0356 104.496 19.2859 106.059C20.5361 107.622 22.2318 108.5 23.9999 108.5H43.9999C45.768 108.5 47.4637 107.622 48.714 106.059C49.9642 104.496 50.6666 102.377 50.6666 100.167V64.8333C50.6666 61.1792 48.5533 58.0583 45.6666 57.4583C44.2698 57.1674 43.0008 56.2667 42.0853 54.9163C41.1697 53.5659 40.6671 51.8534 40.6666 50.0833V46" stroke="#285430" stroke-width="4" stroke-linecap="round" stroke-linejoin="round"/>
<path d="M17.3333 71H50.6666" stroke="#285430" stroke-width="3" stroke-linecap="round" stroke-linejoin="round"/>
<path d="M17.3333 96H50.6666" stroke="#285430" stroke-width="3" stroke-linecap="round" stroke-linejoin="round"/>
<path d="M30.6667 83.5H37.3334" stroke="#285430" stroke-width="3" stroke-linecap="round" stroke-linejoin="round"/>
</g>
</g>
<defs>
<clipPath id="clip0_2746_2859">
<rect width="120" height="120" fill="white"/>
</clipPath>
<clipPath id="clip1_2746_2859">
<rect width="100" height="115" fill="white" transform="translate(34 7)"/>
</clipPath>
<clipPath id="clip2_2746_2859">
<rect width="80" height="100" fill="white" transform="translate(-6 21)"/>
</clipPath>
</defs>
</svg>
