<?xml version="1.0" standalone="no"?>
<!DOCTYPE svg PUBLIC "-//W3C//DTD SVG 20010904//EN"
 "http://www.w3.org/TR/2001/REC-SVG-20010904/DTD/svg10.dtd">
<svg version="1.0" xmlns="http://www.w3.org/2000/svg"
 width="512.000000pt" height="512.000000pt" viewBox="0 0 512.000000 512.000000"
 preserveAspectRatio="xMidYMid meet">

<g transform="translate(0.000000,512.000000) scale(0.100000,-0.100000)"
fill="#000000" stroke="none">
<path d="M3055 5113 c-11 -3 -171 -45 -355 -94 -371 -99 -405 -114 -454 -193
-50 -80 -48 -140 10 -358 26 -99 56 -190 65 -201 18 -23 75 -28 135 -13 l30 8
29 -107 28 -107 -154 -385 c-86 -215 -152 -396 -151 -410 4 -47 132 -515 152
-553 21 -41 87 -104 119 -115 25 -8 26 -25 4 -68 -10 -20 -18 -66 -21 -122 -4
-79 0 -105 27 -208 18 -66 41 -139 53 -164 29 -62 116 -153 172 -181 25 -13
46 -25 46 -28 0 -2 -11 -22 -24 -42 -66 -105 -76 -223 -32 -392 44 -170 104
-271 195 -333 23 -15 24 -18 8 -35 -29 -31 -49 -95 -49 -152 0 -61 189 -784
216 -825 8 -13 28 -26 44 -30 21 -4 258 56 851 214 452 122 831 226 841 231
23 12 40 41 40 68 0 25 -195 750 -214 795 -18 43 -79 105 -122 123 l-33 14 22
47 c18 40 22 66 22 158 0 95 -5 125 -33 220 -18 61 -45 130 -59 155 -35 60
-110 131 -162 154 -23 11 -40 22 -39 25 2 3 18 35 35 71 62 123 64 193 12 383
-41 150 -63 192 -140 269 -38 37 -64 70 -60 73 22 13 53 103 53 155 1 68 -127
551 -154 586 -11 13 -162 135 -336 272 l-317 249 -25 99 c-14 54 -25 103 -25
107 0 5 24 16 53 26 59 20 81 43 82 83 0 38 -85 352 -110 404 -46 93 -171 151
-275 127z m109 -186 c15 -15 33 -61 54 -143 18 -66 32 -125 32 -131 0 -11
-798 -228 -807 -219 -3 2 -20 64 -39 136 -31 120 -33 133 -19 159 8 16 22 32
32 36 45 19 662 183 691 184 22 1 40 -7 56 -22z m6 -614 c20 -74 42 -136 54
-150 12 -13 162 -135 335 -271 l315 -247 62 -235 c35 -129 64 -243 64 -253 0
-32 -52 -73 -110 -87 -100 -23 -156 -49 -168 -76 -19 -39 -14 -63 16 -94 28
-28 31 -28 110 -23 101 7 152 -10 211 -69 46 -47 68 -98 101 -240 21 -87 22
-102 11 -152 -18 -79 -62 -134 -141 -173 -75 -37 -100 -64 -100 -104 0 -29 29
-67 53 -71 6 -1 53 -2 103 -2 83 -1 95 -4 140 -31 27 -17 63 -51 80 -76 38
-57 88 -233 87 -309 0 -103 -54 -180 -158 -229 -88 -42 -108 -89 -64 -145 26
-33 65 -34 167 -6 39 11 86 20 102 20 60 0 69 -20 164 -373 48 -181 85 -331
82 -335 -12 -12 -1450 -392 -1456 -385 -4 5 -46 155 -94 335 -91 342 -94 366
-51 394 12 8 157 50 321 94 181 49 306 87 316 98 10 9 20 31 24 49 5 27 1 37
-24 63 -17 16 -40 30 -52 30 -12 0 -114 -26 -228 -57 -251 -68 -320 -74 -393
-31 -87 51 -110 90 -154 262 -39 155 -24 229 63 308 43 38 94 58 287 108 239
62 253 68 271 101 28 56 -8 119 -68 119 -18 0 -127 -25 -243 -56 -224 -60
-284 -67 -352 -39 -50 21 -111 81 -133 130 -34 80 -72 253 -65 298 10 57 51
132 90 162 45 34 82 47 305 105 285 75 299 80 320 103 42 45 7 137 -52 137
-13 0 -177 -41 -365 -91 -313 -84 -344 -91 -373 -79 -17 7 -35 20 -39 29 -5 9
-37 121 -71 250 l-63 234 157 391 156 392 -30 115 c-17 62 -33 123 -36 135 -5
19 3 24 93 48 54 15 161 44 238 65 77 21 143 39 146 40 3 0 21 -56 39 -126z"/>
<path d="M3492 2947 c-69 -74 32 -179 112 -116 35 27 36 86 3 117 -32 30 -87
29 -115 -1z"/>
<path d="M3689 2145 c-25 -8 -54 -24 -64 -35 -37 -41 -11 -123 42 -134 38 -8
130 18 159 45 52 49 14 140 -58 138 -18 0 -54 -7 -79 -14z"/>
<path d="M3930 1336 c-80 -22 -110 -50 -110 -101 0 -28 51 -75 82 -75 50 0
137 30 153 53 30 42 18 100 -26 122 -33 17 -39 17 -99 1z"/>
<path d="M722 5084 c-29 -14 -65 -42 -82 -62 -52 -63 -60 -105 -60 -319 0
-246 7 -262 113 -263 l57 0 0 -111 0 -112 -250 -334 c-137 -183 -252 -344
-256 -357 -3 -13 -4 -149 -2 -303 5 -312 6 -321 78 -393 l40 -40 -34 -45 c-58
-76 -78 -143 -83 -290 -3 -76 -1 -155 6 -190 15 -82 61 -171 115 -224 l45 -45
-50 -53 c-95 -100 -124 -203 -116 -408 5 -147 25 -214 83 -290 l34 -45 -40
-40 c-76 -76 -74 -62 -78 -555 -2 -242 0 -455 3 -473 3 -17 16 -41 27 -52 21
-20 36 -20 898 -20 l877 0 24 26 24 26 0 466 0 467 -24 45 c-13 25 -39 60 -58
77 l-34 33 30 37 c62 78 91 184 91 338 0 172 -33 273 -120 368 l-48 52 48 52
c87 95 120 196 120 368 0 154 -29 260 -92 338 l-30 39 34 31 c19 18 46 52 59
77 23 44 24 53 27 314 2 148 1 284 -3 303 -4 23 -86 140 -256 367 l-249 333 0
112 0 111 50 0 c60 0 94 15 109 47 18 39 15 399 -4 454 -22 63 -66 113 -127
143 l-52 26 -396 0 -396 0 -52 -26z m843 -169 c24 -23 25 -29 25 -165 l0 -140
-420 0 -420 0 0 140 c0 136 1 142 25 165 l24 25 371 0 371 0 24 -25z m-143
-618 l3 -144 253 -337 253 -337 -3 -254 c-4 -319 8 -298 -174 -305 -117 -5
-127 -7 -145 -29 -25 -31 -24 -74 4 -106 17 -20 36 -28 86 -35 86 -12 147 -50
188 -119 38 -63 47 -122 41 -259 -5 -108 -25 -167 -74 -216 -39 -39 -120 -76
-167 -76 -47 0 -97 -44 -97 -85 0 -41 50 -85 97 -85 47 0 128 -37 167 -76 59
-59 71 -104 71 -264 0 -143 0 -146 -31 -200 -35 -63 -104 -116 -162 -125 -107
-16 -152 -52 -138 -110 13 -53 38 -63 167 -67 108 -3 121 -5 141 -26 l23 -23
3 -394 3 -395 -761 0 -761 0 3 395 3 394 23 23 c22 23 25 23 358 28 l336 5 19
24 c27 34 25 82 -7 112 -25 24 -27 24 -292 29 l-267 5 -47 28 c-56 32 -102 96
-119 160 -6 27 -10 95 -7 169 4 136 17 176 79 236 66 64 78 66 367 72 l264 5
24 28 c30 36 30 68 0 104 l-24 28 -264 5 c-289 6 -301 8 -367 72 -62 60 -75
100 -79 236 -3 74 1 142 7 169 17 64 63 128 119 160 l47 28 307 5 306 5 26 24
c32 30 34 78 7 112 l-19 24 -376 5 c-374 5 -376 5 -398 28 -23 22 -23 27 -26
278 l-3 256 244 326 c135 180 250 337 256 349 6 13 11 75 11 152 l0 131 249 0
250 0 3 -143z"/>
<path d="M1365 2895 c-43 -42 -26 -114 31 -136 38 -14 89 11 102 50 29 83 -72
148 -133 86z"/>
<path d="M1301 2068 c-37 -20 -52 -66 -36 -106 18 -41 53 -55 133 -50 77 5
104 27 104 83 0 58 -27 79 -109 83 -42 2 -77 -2 -92 -10z"/>
<path d="M1303 1225 c-53 -23 -62 -92 -17 -132 21 -19 37 -23 92 -23 100 0
145 41 120 111 -19 54 -120 77 -195 44z"/>
</g>
</svg>
