<?xml version="1.0" standalone="no"?>
<!DOCTYPE svg PUBLIC "-//W3C//DTD SVG 20010904//EN"
 "http://www.w3.org/TR/2001/REC-SVG-20010904/DTD/svg10.dtd">
<svg version="1.0" xmlns="http://www.w3.org/2000/svg"
 width="512.000000pt" height="512.000000pt" viewBox="0 0 512.000000 512.000000"
 preserveAspectRatio="xMidYMid meet">

<g transform="translate(0.000000,512.000000) scale(0.100000,-0.100000)"
fill="#000000" stroke="none">
<path d="M124 5028 c-12 -5 -27 -21 -33 -34 -16 -35 -16 -4193 0 -4227 6 -14
22 -30 36 -36 17 -8 207 -11 628 -11 l605 0 0 -285 c0 -301 3 -324 47 -344 34
-16 3552 -16 3586 0 14 6 30 22 36 36 16 34 16 1472 0 1506 -19 42 -47 47
-264 47 l-205 0 0 605 c0 421 -3 611 -11 628 -6 14 -22 30 -36 36 -16 8 -185
11 -548 11 l-525 0 0 1005 c0 714 -3 1011 -11 1028 -6 14 -22 30 -36 36 -33
15 -3238 14 -3269 -1z m3156 -1108 l0 -960 -205 0 c-128 0 -213 -4 -228 -11
-39 -18 -47 -50 -47 -184 l0 -125 -720 0 -720 0 0 -80 0 -80 720 0 720 0 0
-80 0 -80 -720 0 -720 0 0 -80 0 -80 720 0 720 0 0 -240 0 -240 -685 0 c-480
0 -691 -3 -708 -11 -14 -6 -30 -22 -36 -36 -7 -16 -11 -143 -11 -388 l0 -365
-560 0 -560 0 0 2000 0 2000 1520 0 1520 0 0 -960z m160 -1325 c0 -217 5 -245
47 -264 32 -15 354 -15 386 0 42 19 47 47 47 264 l0 205 240 0 240 0 0 -560 0
-560 -720 0 -720 0 0 560 0 560 240 0 240 0 0 -205z m320 45 l0 -160 -80 0
-80 0 0 160 0 160 80 0 80 0 0 -160z m-1760 -1325 c0 -217 5 -245 47 -264 33
-15 513 -15 546 0 42 19 47 47 47 264 l0 205 240 0 240 0 0 -640 0 -640 -800
0 -800 0 0 640 0 640 240 0 240 0 0 -205z m480 45 l0 -160 -160 0 -160 0 0
160 0 160 160 0 160 0 0 -160z m1280 -45 c0 -217 5 -245 47 -264 33 -15 513
-15 546 0 42 19 47 47 47 264 l0 205 240 0 240 0 0 -640 0 -640 -800 0 -800 0
0 640 0 640 240 0 240 0 0 -205z m480 45 l0 -160 -160 0 -160 0 0 160 0 160
160 0 160 0 0 -160z"/>
<path d="M1150 4785 l-64 -65 -308 0 c-325 0 -347 -3 -367 -47 -7 -16 -11
-133 -11 -353 0 -220 4 -337 11 -353 20 -45 41 -47 389 -47 220 0 337 4 353
11 44 20 47 42 47 367 l0 306 67 68 67 68 -54 55 c-30 30 -57 55 -60 55 -3 0
-35 -29 -70 -65z m-230 -228 c0 -1 -81 -83 -180 -182 l-180 -180 0 183 0 182
180 0 c99 0 180 -1 180 -3z m120 -297 l0 -180 -182 0 -183 0 180 180 c99 99
181 180 182 180 2 0 3 -81 3 -180z"/>
<path d="M1360 4480 l0 -80 880 0 880 0 0 80 0 80 -880 0 -880 0 0 -80z"/>
<path d="M1360 4160 l0 -80 880 0 880 0 0 80 0 80 -880 0 -880 0 0 -80z"/>
<path d="M444 3748 c-41 -19 -44 -44 -44 -388 0 -348 2 -369 47 -389 33 -15
673 -15 706 0 45 20 47 41 47 389 0 348 -2 369 -47 389 -32 15 -679 14 -709
-1z m596 -388 l0 -240 -240 0 -240 0 0 240 0 240 240 0 240 0 0 -240z"/>
<path d="M1360 3520 l0 -80 880 0 880 0 0 80 0 80 -880 0 -880 0 0 -80z"/>
<path d="M1360 3200 l0 -80 880 0 880 0 0 80 0 80 -880 0 -880 0 0 -80z"/>
<path d="M1150 2865 l-64 -65 -308 0 c-325 0 -347 -3 -367 -47 -7 -16 -11
-133 -11 -353 0 -348 2 -369 47 -389 33 -15 673 -15 706 0 44 20 47 42 47 367
l0 306 67 68 67 68 -54 55 c-30 30 -57 55 -60 55 -3 0 -35 -29 -70 -65z m-230
-228 c0 -1 -81 -83 -180 -182 l-180 -180 0 183 0 182 180 0 c99 0 180 -1 180
-3z m120 -297 l0 -180 -182 0 -183 0 180 180 c99 99 181 180 182 180 2 0 3
-81 3 -180z"/>
<path d="M444 1828 c-41 -19 -44 -44 -44 -388 0 -348 2 -369 47 -389 33 -15
673 -15 706 0 45 20 47 41 47 389 0 348 -2 369 -47 389 -32 15 -679 14 -709
-1z m596 -388 l0 -240 -240 0 -240 0 0 240 0 240 240 0 240 0 0 -240z"/>
<path d="M3920 1920 l0 -80 160 0 160 0 0 80 0 80 -160 0 -160 0 0 -80z"/>
<path d="M2640 800 l0 -80 160 0 160 0 0 80 0 80 -160 0 -160 0 0 -80z"/>
<path d="M2640 480 l0 -80 160 0 160 0 0 80 0 80 -160 0 -160 0 0 -80z"/>
<path d="M4400 800 l0 -80 160 0 160 0 0 80 0 80 -160 0 -160 0 0 -80z"/>
<path d="M4400 480 l0 -80 160 0 160 0 0 80 0 80 -160 0 -160 0 0 -80z"/>
</g>
</svg>
