<?xml version="1.0" standalone="no"?>
<!DOCTYPE svg PUBLIC "-//W3C//DTD SVG 20010904//EN"
 "http://www.w3.org/TR/2001/REC-SVG-20010904/DTD/svg10.dtd">
<svg version="1.0" xmlns="http://www.w3.org/2000/svg"
 width="512.000000pt" height="512.000000pt" viewBox="0 0 512.000000 512.000000"
 preserveAspectRatio="xMidYMid meet">

<g transform="translate(0.000000,512.000000) scale(0.100000,-0.100000)"
fill="#285430" stroke="none">
<path d="M2504 5106 c-36 -16 -240 -265 -251 -305 -8 -33 15 -72 50 -84 40
-13 64 7 164 134 48 60 89 109 92 109 8 0 454 -560 450 -564 -2 -2 -46 -16
-98 -31 -119 -33 -147 -48 -171 -88 -19 -30 -20 -52 -20 -369 l0 -338 -160 0
-160 0 0 338 c0 425 10 400 -191 457 -52 15 -96 29 -97 30 -2 2 19 33 47 70
28 36 51 76 51 88 0 55 -62 91 -106 63 -35 -24 -134 -153 -145 -188 -11 -41 5
-103 35 -133 22 -22 54 -34 194 -75 l72 -21 0 -337 c0 -316 1 -339 20 -369 39
-65 52 -68 280 -68 228 0 241 3 280 68 19 30 20 53 20 369 0 312 1 337 18 342
226 64 262 84 281 152 18 66 3 90 -255 414 -137 172 -258 319 -271 327 -32 21
-93 26 -129 9z"/>
<path d="M2036 3968 c-14 -19 -16 -63 -16 -274 l0 -253 26 -20 c34 -26 68 -27
94 -1 19 19 20 33 20 278 0 238 -1 260 -18 275 -28 25 -87 22 -106 -5z"/>
<path d="M2977 3972 c-15 -16 -17 -50 -17 -275 0 -244 1 -258 20 -277 26 -26
60 -25 94 1 l26 20 0 253 c0 287 -2 296 -69 296 -24 0 -44 -7 -54 -18z"/>
<path d="M1811 3816 c-14 -8 -28 -22 -32 -32 -11 -27 -11 -139 0 -167 13 -32
59 -51 94 -38 34 13 47 46 47 119 0 78 -8 100 -41 117 -34 18 -37 18 -68 1z"/>
<path d="M3241 3816 c-14 -8 -28 -22 -32 -32 -11 -28 -10 -139 1 -169 20 -54
110 -52 131 2 13 34 11 137 -2 166 -10 22 -47 48 -67 47 -4 -1 -18 -7 -31 -14z"/>
<path d="M1791 3484 c-18 -23 -21 -41 -21 -135 l0 -109 -190 0 c-206 0 -242
-7 -254 -52 -3 -13 -6 -285 -6 -605 l0 -583 -540 0 -541 0 -24 -25 -25 -24 0
-319 c0 -308 1 -320 21 -346 15 -19 30 -26 54 -26 24 0 39 7 54 26 20 26 21
39 21 300 l0 274 235 0 235 0 0 -100 c0 -118 14 -161 62 -190 28 -17 50 -20
158 -20 108 0 130 3 158 20 48 29 62 72 62 190 l0 100 235 0 235 0 0 -545 0
-545 -690 0 -690 0 0 145 c0 142 -1 147 -25 170 -33 34 -77 33 -104 -1 -19
-24 -21 -40 -21 -170 l0 -144 -54 0 c-69 0 -111 -15 -125 -46 -7 -16 -11 -93
-11 -210 0 -183 0 -185 25 -209 23 -23 31 -25 133 -25 l108 0 44 -121 c29 -82
51 -126 68 -140 23 -17 42 -19 243 -19 264 0 247 -9 309 163 l42 117 133 0
132 0 44 -121 c29 -81 52 -127 68 -140 22 -17 43 -19 242 -19 264 0 247 -9
309 163 l43 117 132 0 132 0 42 -117 c62 -172 45 -163 311 -163 266 0 249 -9
311 163 l42 117 132 0 132 0 43 -117 c62 -172 45 -163 309 -163 199 0 220 2
242 19 16 13 39 59 68 140 l44 121 132 0 133 0 42 -118 c62 -171 45 -162 309
-162 201 0 220 2 243 19 17 14 39 58 68 140 l44 121 108 0 c102 0 110 2 133
25 25 24 25 26 25 209 0 117 -4 194 -11 210 -14 31 -56 46 -125 46 l-54 0 0
590 0 591 -25 24 -24 25 -541 0 -540 0 0 133 c0 72 -3 142 -6 155 -10 34 -59
57 -94 42 -42 -17 -50 -48 -50 -195 l0 -135 -1090 0 -1090 0 0 545 0 545 434
0 434 0 4 -114 c3 -111 4 -116 33 -146 39 -41 91 -53 210 -48 165 6 195 39
195 208 l0 100 435 0 435 0 0 -280 0 -281 25 -24 c31 -32 69 -32 100 0 l25 24
0 318 c0 175 -3 328 -6 341 -12 45 -48 52 -254 52 l-190 0 0 109 c0 94 -3 112
-21 135 -15 19 -30 26 -54 26 -24 0 -39 -7 -54 -26 -18 -23 -21 -41 -21 -135
l0 -109 -640 0 -640 0 0 109 c0 94 -3 112 -21 135 -15 19 -30 26 -54 26 -24 0
-39 -7 -54 -26z m839 -474 l0 -80 -70 0 -70 0 0 80 0 80 70 0 70 0 0 -80z
m-1530 -1235 l0 -85 -70 0 -70 0 0 85 0 85 70 0 70 0 0 -85z m1240 -15 c0
-118 14 -161 62 -190 28 -17 50 -20 158 -20 108 0 130 3 158 20 48 29 62 72
62 190 l0 100 235 0 235 0 0 -545 0 -545 -690 0 -690 0 0 545 0 545 235 0 235
0 0 -100z m290 15 l0 -85 -70 0 -70 0 0 85 0 85 70 0 70 0 0 -85z m1240 -15
c0 -118 14 -161 62 -190 28 -17 50 -20 158 -20 108 0 130 3 158 20 48 29 62
72 62 190 l0 100 235 0 235 0 0 -545 0 -545 -690 0 -690 0 0 545 0 545 235 0
235 0 0 -100z m290 15 l0 -85 -70 0 -70 0 0 85 0 85 70 0 70 0 0 -85z m810
-1250 l0 -95 -2410 0 -2410 0 0 95 0 95 2410 0 2410 0 0 -95z m-4160 -255 c0
-5 -9 -34 -21 -65 l-21 -56 -150 3 -150 3 -24 63 -23 62 194 0 c118 0 195 -4
195 -10z m969 -2 c0 -7 -8 -35 -18 -63 l-18 -50 -152 0 -153 0 -19 50 c-10 28
-19 56 -19 63 0 9 45 12 190 12 146 0 190 -3 189 -12z m970 0 c0 -7 -8 -35
-18 -63 l-18 -50 -152 0 -153 0 -19 50 c-10 28 -19 56 -19 63 0 9 45 12 190
12 146 0 190 -3 189 -12z m971 0 c0 -7 -9 -35 -19 -63 l-19 -50 -153 0 -152 0
-18 50 c-10 28 -18 56 -18 63 -1 9 43 12 189 12 145 0 190 -3 190 -12z m956
-50 l-24 -63 -150 -3 -150 -3 -21 56 c-12 31 -21 60 -21 65 0 6 77 10 195 10
l194 0 -23 -62z"/>
<path d="M2042 1060 c-29 -12 -45 -55 -39 -104 7 -50 28 -70 73 -70 49 0 74
31 74 91 0 71 -47 107 -108 83z"/>
<path d="M2305 1045 c-19 -18 -25 -35 -25 -70 0 -35 6 -52 25 -70 27 -28 42
-30 78 -14 63 29 59 155 -5 173 -38 10 -48 7 -73 -19z"/>
<path d="M3577 1063 c-21 -6 -47 -53 -47 -87 0 -37 19 -72 47 -85 36 -16 51
-14 78 14 19 18 25 35 25 70 0 70 -40 104 -103 88z"/>
<path d="M3836 1047 c-36 -36 -37 -107 -1 -142 58 -59 136 1 122 92 -8 45 -22
61 -64 69 -26 5 -37 1 -57 -19z"/>
<path d="M1621 2274 c-46 -59 -13 -154 54 -154 43 0 75 38 75 90 0 52 -32 90
-75 90 -24 0 -39 -7 -54 -26z"/>
<path d="M1900 2278 c-13 -15 -20 -35 -20 -64 0 -80 65 -120 121 -75 31 25 34
108 5 140 -26 28 -79 28 -106 -1z"/>
<path d="M512 1060 c-29 -12 -45 -55 -39 -104 7 -50 28 -70 73 -70 49 0 74 31
74 91 0 71 -47 107 -108 83z"/>
<path d="M775 1045 c-35 -34 -35 -106 0 -140 41 -42 98 -25 116 35 28 93 -54
167 -116 105z"/>
</g>
</svg>
