<?xml version="1.0" standalone="no"?>
<!DOCTYPE svg PUBLIC "-//W3C//DTD SVG 20010904//EN"
 "http://www.w3.org/TR/2001/REC-SVG-20010904/DTD/svg10.dtd">
<svg version="1.0" xmlns="http://www.w3.org/2000/svg"
 width="512.000000pt" height="512.000000pt" viewBox="0 0 512.000000 512.000000"
 preserveAspectRatio="xMidYMid meet">

<g transform="translate(0.000000,512.000000) scale(0.100000,-0.100000)"
fill="#000000" stroke="none">
<path d="M2490 3980 l0 -300 -135 0 -135 0 -150 -300 -150 -300 -165 0 -165 0
0 -150 0 -150 -590 0 -590 0 -165 -330 -165 -330 0 -640 0 -640 2480 0 2480 0
0 640 0 640 -165 330 -165 330 -590 0 -590 0 0 150 0 150 -165 0 -165 0 -150
300 -150 300 -135 0 -135 0 0 230 0 230 190 0 190 0 0 70 0 70 -260 0 -260 0
0 -300z m445 -670 l115 -230 -490 0 -490 0 115 230 115 230 260 0 260 0 115
-230z m455 -750 l0 -380 -230 0 -230 0 0 190 0 190 -70 0 -70 0 0 -190 0 -190
-230 0 -230 0 0 190 0 190 -70 0 -70 0 0 -190 0 -190 -230 0 -230 0 0 380 0
380 830 0 830 0 0 -380z m-1800 -150 l0 -230 -665 0 -665 0 115 230 115 230
550 0 550 0 0 -230z m3155 0 l115 -230 -665 0 -665 0 0 230 0 230 550 0 550 0
115 -230z m-3455 -900 l0 -530 -230 0 -230 0 0 340 0 340 -70 0 -70 0 0 -340
0 -340 -235 0 -235 0 0 530 0 530 535 0 535 0 0 -530z m2400 0 l0 -530 -380 0
-380 0 0 230 0 230 190 0 190 0 0 70 0 70 -750 0 -750 0 0 -70 0 -70 190 0
190 0 0 -230 0 -230 -380 0 -380 0 0 530 0 530 1130 0 1130 0 0 -530z m1210 0
l0 -530 -235 0 -235 0 0 340 0 340 -70 0 -70 0 0 -340 0 -340 -230 0 -230 0 0
530 0 530 535 0 535 0 0 -530z m-2110 -300 l0 -230 -230 0 -230 0 0 230 0 230
230 0 230 0 0 -230z"/>
</g>
</svg>
