<svg width="120" height="120" viewBox="0 0 120 120" fill="none" xmlns="http://www.w3.org/2000/svg">
<g clip-path="url(#clip0_2477_2860)">
<g clip-path="url(#clip1_2477_2860)">
<path d="M20.5 22.5H45.5" stroke="#285430" stroke-width="4" stroke-linecap="round" stroke-linejoin="round"/>
<path d="M24.6667 47.5H41.3334" stroke="#285430" stroke-width="4" stroke-linecap="round" stroke-linejoin="round"/>
<path d="M24.6666 22.5V47.5L7.99995 93.3333C7.79891 93.7378 7.69454 94.1834 7.69507 94.635C7.6956 95.0867 7.80101 95.532 8.00299 95.936C8.20497 96.3399 8.49801 96.6915 8.85901 96.9629C9.22001 97.2343 9.63911 97.4182 10.0833 97.5H55.9166C56.3608 97.4182 56.7799 97.2343 57.1409 96.9629C57.5019 96.6915 57.7949 96.3399 57.9969 95.936C58.1989 95.532 58.3043 95.0867 58.3048 94.635C58.3053 94.1834 58.201 93.7378 57.9999 93.3333L41.3333 47.5V22.5" stroke="#285430" stroke-width="4" stroke-linecap="round" stroke-linejoin="round"/>
</g>
<g clip-path="url(#clip2_2477_2860)">
<path d="M62.4167 72.5H111.583" stroke="#285430" stroke-width="4" stroke-linecap="round" stroke-linejoin="round"/>
<path d="M95.3334 22.5V53.0917C99.7135 54.6418 103.575 57.3815 106.485 61.0036C109.395 64.6256 111.239 68.9867 111.809 73.5979C112.379 78.2091 111.654 82.888 109.714 87.1098C107.774 91.3317 104.696 94.9296 100.825 97.5H73.1792C69.3063 94.9305 66.226 91.3326 64.284 87.11C62.342 82.8874 61.6152 78.2071 62.1851 73.5944C62.7549 68.9817 64.599 64.619 67.5103 60.996C70.4216 57.373 74.2849 54.6329 78.6667 53.0833V22.5H95.3334Z" stroke="#285430" stroke-width="4" stroke-linecap="round" stroke-linejoin="round"/>
<path d="M74.5 22.5H99.5" stroke="#285430" stroke-width="4" stroke-linecap="round" stroke-linejoin="round"/>
<path d="M63.6001 74.3609C63.8705 74.7214 65.8952 74.4564 66.3271 74.4564C67.2396 74.4564 68.1521 74.4564 69.0647 74.4564C70.6846 74.4564 72.3045 74.4564 73.9244 74.4564C75.6156 74.4564 77.2632 74.1699 78.9539 74.1699C81.6708 74.1699 84.3897 74.0744 87.1029 74.0744C89.9472 74.0744 92.8445 74.0823 95.687 73.9047C97.3789 73.7989 99.0959 73.8834 100.791 73.8834C103.226 73.8834 105.622 73.6924 108.059 73.6924C108.31 73.6924 109.959 73.4987 110.112 73.7031C110.118 73.7101 109.919 73.88 109.916 73.8834C109.827 73.9726 109.751 74.068 109.677 74.1699C109.462 74.4676 109.248 74.7223 109.248 75.0878C109.248 75.7557 109.212 76.3675 109.248 77.0348C109.29 77.8392 109.439 78.6082 109.439 79.4435C109.439 79.8247 109.363 80.2225 109.205 80.5682C109.029 80.9541 108.671 81.2993 108.579 81.7142C108.389 82.5682 108.091 83.3414 107.863 84.2024C107.746 84.6419 107.617 85.0976 107.529 85.5393C107.475 85.8083 107.396 86.0736 107.332 86.3404C107.269 86.6057 107.027 86.7006 106.934 86.9453C106.534 88.0002 106.04 89.1029 105.449 90.0436C104.733 91.1834 103.856 91.9074 102.717 92.6008C102.113 92.9682 101.623 93.5221 101.035 93.9006C100.384 94.3193 99.9459 95.1612 99.1991 95.4444C98.3046 95.7838 97.4352 96.1133 96.4722 96.2509C95.8632 96.3379 95.3297 96.5161 94.7108 96.5161C94.0972 96.5161 93.4835 96.5161 92.8698 96.5161C91.7722 96.5161 90.683 96.2296 89.5752 96.2296C88.3211 96.2296 87.1921 95.9432 85.9463 95.9432C82.4908 95.9432 79.0352 95.9432 75.5797 95.9432C74.8151 95.9432 74.146 95.5607 73.3938 95.4604C73.1806 95.4319 73.076 95.2442 72.9058 95.142C72.6732 95.0025 72.4562 95.0035 72.2426 94.8025C71.8439 94.4273 71.3242 94.1807 70.9746 93.7467C70.1157 92.6805 69.4923 91.4154 68.7145 90.2876C68.2493 89.6131 67.8705 88.8616 67.3245 88.261C67.0917 88.0049 66.8998 87.6284 66.8364 87.2954C66.762 86.9047 66.3128 86.4392 66.1361 86.0699C65.8932 85.562 65.404 85.1043 65.3191 84.5313C65.2282 83.9176 64.9708 83.3377 64.8628 82.7222C64.6194 81.335 64.1517 79.9732 63.8124 78.6158C63.627 77.8743 63.4091 77.2902 63.4091 76.5149C63.4091 76.3367 63.3148 75.9844 63.5577 75.9844C64.4342 75.9844 65.2302 76.1531 66.083 76.3663C68.1235 76.8764 70.0649 76.9393 72.1524 76.9393C74.3199 76.9393 76.4929 76.9891 78.6568 76.8651C80.5935 76.754 82.4961 76.5262 84.4184 76.2709C86.2465 76.0281 88.1683 76.1125 90.0103 76.0746C91.1671 76.0507 92.5129 75.9107 93.5967 75.4591C93.9218 75.3237 94.413 75.4114 94.7533 75.4114C95.6163 75.4114 96.4793 75.4114 97.3423 75.4114C99.949 75.4114 102.556 75.4114 105.162 75.4114C105.904 75.4114 106.579 75.2204 107.316 75.2204C107.605 75.2204 107.74 75.1161 107.72 75.3583C107.683 75.8015 107.62 76.3595 107.523 76.7961C107.445 77.1502 107.491 77.1344 107.613 77.4699C107.653 77.5796 107.624 77.9368 107.624 77.82C107.624 77.5601 107.624 77.3001 107.624 77.0401C107.624 76.5786 107.624 76.117 107.624 75.6554C107.624 75.1787 107.557 75.2103 107.072 75.2204C106.048 75.2417 105.113 75.5911 104.059 75.4857C102.429 75.3227 100.854 74.8508 99.1991 74.8384C97.7174 74.8273 96.235 74.8384 94.7533 74.8384C92.9257 74.8384 90.9698 74.6352 89.172 75.0347C86.628 75.6 83.9751 76.6689 81.3201 76.4565C80.1489 76.3628 79.0401 75.8875 77.8822 75.7191C77.378 75.6458 76.843 75.6979 76.333 75.6979C75.9175 75.6979 75.4948 75.6764 75.081 75.7191C74.6162 75.767 74.1923 75.9651 73.7228 75.9844C72.8218 76.0214 71.993 76.3584 71.0701 76.3663C69.9959 76.3756 68.8978 76.2547 67.8497 76.5096C67.0287 76.7093 66.4003 76.8676 65.7488 77.3744C65.539 77.5375 65.201 78.0269 65.5313 78.133C66.8636 78.5613 68.2583 78.4673 69.6376 78.4673C70.6365 78.4673 71.6189 78.3792 72.5768 78.0641C73.7735 77.6704 75.0874 77.5987 76.3118 77.247C77.1763 76.9987 78.047 76.9393 78.9433 76.9393C81.1662 76.9393 83.3892 76.9393 85.6121 76.9393C91.0749 76.9393 96.5376 76.9393 102 76.9393C104.568 76.9393 107.132 76.8292 109.629 77.5335C110.162 77.6838 109.47 78.1636 109.29 78.2551C108.495 78.66 107.403 78.8493 106.515 78.8493C104.843 78.8493 103.225 78.1921 101.565 78.0959C99.2742 77.9631 97.0024 77.8943 94.7055 77.8943C90.6692 77.8943 86.5783 77.7179 82.5509 77.9898C77.8181 78.3093 73.0102 78.0853 68.2689 78.0853C67.7751 78.0853 67.124 77.9802 66.656 78.1808C66.4316 78.277 66.302 78.4863 66.1043 78.6158C65.8098 78.8087 65.5101 78.8946 65.5101 79.3267C65.5101 79.6206 65.3084 79.9608 65.2289 80.2393C65.0248 80.9534 67.5991 80.082 67.7595 80.043C69.7801 79.5515 71.82 78.8493 73.9085 78.8493C75.1751 78.8493 76.4717 78.9275 77.7283 78.7378C78.7023 78.5908 79.6323 78.3565 80.6198 78.2975C83.7278 78.1119 86.8875 78.2763 89.9996 78.2763C91.761 78.2763 93.5224 78.2763 95.2838 78.2763C97.2304 78.2763 99.1608 78.4673 101.109 78.4673C102.625 78.4673 104.423 78.195 105.9 78.6105C106.669 78.8269 107.766 78.8958 108.282 79.5549C108.527 79.8684 108.484 80.1281 108.484 80.5151C108.484 81.5946 102.893 80.944 102.128 80.8547C99.7635 80.5786 97.3227 80.7702 94.9442 80.7592C92.4806 80.7478 90.0249 80.5682 87.5592 80.5682C85.101 80.5682 82.6429 80.5682 80.1847 80.5682C78.1376 80.5682 76.1688 80.5535 74.1472 80.2074C72.82 79.9803 71.5206 79.8042 70.1735 79.8042C69.3733 79.8042 68.6322 79.7772 67.8603 80.0536C67.1397 80.3116 66.4476 80.6635 65.7594 80.9926C64.9799 81.3654 65.4008 82.722 65.8921 83.2421C66.3644 83.7423 67.0604 84.0061 67.7595 84.0061C71.1342 84.0061 74.1952 82.5536 77.4684 81.99C79.3905 81.6591 81.4159 81.8097 83.3573 81.8097C85.6245 81.8097 87.8916 81.8097 90.1588 81.8097C92.9212 81.8097 95.7899 81.5738 98.5201 82.0431C99.4611 82.2048 100.39 82.3903 101.332 82.5365C102.2 82.6712 103.029 82.9682 103.91 83.0352C104.369 83.07 104.813 83.0806 105.268 83.1413C105.64 83.1908 106.006 83.3091 106.393 83.2262C106.693 83.162 107.07 82.9406 107.322 82.7646C107.673 82.5187 107.26 82.3995 107.03 82.2659C105.937 81.6316 105.103 80.8506 103.878 80.4515C102.381 79.9632 100.805 79.6551 99.284 79.2312C98.9143 79.1282 98.5917 79.1243 98.2017 79.157C95.7388 79.3632 93.357 80.1202 90.8909 80.3135C88.6362 80.4903 86.3502 80.4318 84.0895 80.547C81.7236 80.6675 79.3555 80.6564 76.9909 80.8016C75.2535 80.9083 73.5129 80.8278 71.7757 80.9661C70.1958 81.0919 68.6336 81.4017 67.0539 81.5126C66.6867 81.5383 65.5356 81.4321 65.4199 81.9529C65.1586 83.1288 69.5039 82.3162 69.9241 82.2341C72.5212 81.727 75.3367 82.0006 77.9671 82.0006C81.5919 82.0006 85.083 82.1609 88.6521 82.8601C90.3131 83.1855 91.8934 83.3326 93.5861 83.3376C95.091 83.3421 96.606 83.2882 98.1062 83.4331C99.3284 83.5511 100.526 83.8256 101.725 84.0697C102.834 84.2957 103.987 84.3298 105.062 84.6692C105.623 84.8465 106.129 84.748 106.674 84.6799C106.834 84.6599 106.996 84.6685 107.147 84.7223C107.429 84.8232 106.248 84.77 106.197 84.77C103.026 84.77 99.8552 84.77 96.6844 84.77C94.7891 84.77 92.8922 84.7925 90.9971 84.77C90.0348 84.7586 89.2288 84.504 88.3019 84.3032C86.1326 83.8332 83.8668 83.7354 81.649 83.7196C79.0744 83.7012 76.4991 83.7196 73.9244 83.7196C73.1904 83.7196 72.368 83.5942 71.7067 83.9689C70.8199 84.4715 70.2447 85.2545 69.3724 85.7303C68.6293 86.1357 67.7157 85.6277 67.2078 86.542C66.9225 87.0555 68.6192 87.7878 68.9373 87.9002C71.5156 88.8113 74.2258 88.6296 76.9272 88.5687C79.5616 88.5093 82.1771 88.2143 84.7898 87.8896C87.7437 87.5225 90.595 86.5495 93.5648 86.298C94.635 86.2074 95.717 86.2025 96.7905 86.2025C97.1513 86.2025 97.4609 86.2037 97.8091 86.107C98.7035 85.8586 99.6904 86.1827 100.552 86.4412C101.121 86.6121 101.496 86.68 102.117 86.68C103.001 86.68 103.886 86.68 104.77 86.68C105.037 86.68 105.304 86.68 105.571 86.68C105.858 86.68 104.968 86.2563 104.918 86.2449C103.675 85.9631 102.291 86.107 101.024 86.107C99.0517 86.107 97.11 86.1787 95.1458 86.3723C92.4472 86.6382 89.7375 86.7132 87.0392 86.9983C86.0578 87.102 85.0957 87.1575 84.1107 87.1575C82.5722 87.1575 81.1866 86.9922 79.686 86.6588C79.477 86.6123 79.3946 86.3995 79.2085 86.298C78.9191 86.1401 78.5842 86.0971 78.2589 86.0646C75.6792 85.8066 73.3471 86.1153 70.9215 87.0089C70.654 87.1075 70.3277 87.062 70.0462 87.062C69.4338 87.062 69.5194 86.2637 69.9984 86.0327C70.7561 85.6674 72.3941 86.0446 72.8421 86.7861C73.1421 87.2826 72.7047 88.4943 73.3832 87.3803C73.5704 87.073 73.7533 86.7602 73.8872 86.4253C73.8909 86.4161 73.9878 86.0027 74.0305 85.9797C74.0528 85.9677 74.5666 86.9139 74.6565 86.9983C75.1576 87.4687 76.0489 86.4959 76.3436 86.2131C76.79 85.7847 77.2158 85.3389 77.6753 84.9239C78.0027 84.6282 78.1156 84.464 78.1156 84.9717C78.1156 85.5437 77.9519 86.5542 78.2695 87.0673C78.5073 87.4515 79.5544 85.9133 79.6595 85.7675C80.1549 85.08 80.0514 85.2434 80.3757 85.7993C80.7057 86.365 81.3868 85.9612 81.7922 85.7038C81.9191 85.6233 82.8665 84.7951 82.9064 84.8549C83.4088 85.6086 84.0892 85.8866 85.0126 85.847C85.3348 85.8332 87.0923 85.6096 87.0923 85.0247C87.0923 84.7432 87.278 85.5762 87.4743 85.7781C87.5549 85.861 87.908 85.924 87.7926 85.916C86.0173 85.7936 84.2628 85.4792 82.5085 85.1945C79.1036 84.6418 75.7375 84.2926 72.2903 84.2926C71.8525 84.2926 71.9019 84.188 72.1524 84.5048C72.6601 85.1469 72.5165 86.1057 72.1842 86.7702C71.8795 87.3797 71.4758 87.9102 71.0436 88.4042C70.706 88.7901 70.6205 88.9113 70.5608 89.4335C70.5352 89.657 69.9949 91.3593 70.2372 91.3593C70.5221 91.3593 70.7607 91.282 71.0277 91.1895C71.092 91.1673 71.6146 90.8973 71.3354 90.8818C71.0909 90.8683 70.612 90.5702 71.0701 90.4786C71.718 90.349 72.3976 90.4028 73.0543 90.3619C74.7653 90.2554 76.4635 90.1246 78.1793 90.1179C80.8156 90.1074 83.1643 89.4985 85.7129 88.8446C87.5484 88.3736 89.5529 87.9149 91.4533 87.8366C93.2657 87.7618 95.0644 87.7394 96.8754 87.6296C98.5856 87.526 100.134 86.754 101.873 87.062C102.388 87.1532 102.888 87.3063 103.401 87.4015C103.713 87.4595 104.116 87.4216 104.377 87.6349C104.609 87.8246 105.032 87.9675 105.046 88.3246C105.09 89.4821 103.756 90.1048 102.849 90.4574C100.922 91.2068 98.4992 90.8818 96.4828 90.8818C94.1339 90.8818 91.6737 90.6893 89.3365 90.9614C86.7575 91.2617 84.251 92.1449 81.6596 92.3886C80.314 92.5151 78.9147 92.4098 77.5639 92.4098C75.4761 92.4098 73.4168 92.4273 71.3354 92.6008C71.0634 92.6234 72.0048 93.264 72.1736 93.3647C72.7689 93.72 73.1103 93.9377 73.8024 93.9377C77.6653 93.9377 81.5227 94.0332 85.384 94.0332C88.6784 94.0332 92.2235 94.5746 95.4429 93.7467C96.3669 93.5092 96.9474 93.3264 97.7455 92.7918C98.7606 92.1118 99.9549 91.5865 100.907 90.8288C101.515 90.3452 101.608 89.7239 101.926 89.0568C102.061 88.7742 102.185 88.5951 101.809 88.5899C101.254 88.5822 100.699 88.5899 100.144 88.5899C99.3841 88.5899 101.644 88.8764 102.404 88.8764C102.512 88.8764 103.199 88.8182 102.966 88.9401C102.523 89.1723 102.174 89.3256 101.671 89.4069C100.268 89.6339 98.8884 89.9675 97.4961 90.2505C95.666 90.6225 93.8641 90.6684 92.0051 90.6961C91.0439 90.7105 90.0798 90.7879 89.1614 91.094C88.6322 91.2704 88.1165 91.5526 87.5486 91.6246C85.9778 91.8237 84.4959 91.014 82.9329 90.9773C82.6008 90.9695 82.2677 90.9773 81.9355 90.9773C81.1079 90.9773 83.57 90.7091 84.376 90.5211C87.4288 89.8087 90.507 88.9441 93.6232 88.5475C95.7408 88.278 97.8132 87.7548 99.9207 87.4386C100.814 87.3046 101.639 87.253 102.542 87.253C103.111 87.253 103.007 87.9939 102.839 88.3989C102.527 89.1472 101.938 89.5501 101.725 90.3619C101.552 91.0179 101.209 91.5831 100.663 92.0278C100.183 92.4191 99.5809 92.6684 99.2522 93.2162C99.0991 93.4714 98.9206 93.6853 98.6898 93.8741C97.9777 94.4567 96.9963 94.553 96.0955 94.7866C95.1614 95.0288 94.7055 94.9665 93.8195 94.5638C93.4152 94.38 92.9194 94.326 92.5356 94.1128C92.1976 93.925 92.156 93.3106 92.1112 92.9775C92.0843 92.7775 92.1774 91.9786 91.9096 91.9429C91.4405 91.8804 90.8687 91.8869 90.4029 91.98C89.907 92.0792 89.5216 92.4005 88.981 92.4098C88.8007 92.4129 88.2595 92.4098 88.4399 92.4098C89.7614 92.4098 91.0787 92.4091 92.3977 92.3037C94.0803 92.1692 95.8637 92.0266 97.512 91.6246C98.0532 91.4926 96.4178 91.8372 95.878 91.9747C94.6529 92.2868 93.4063 92.6315 92.143 92.7493C90.079 92.9418 87.9655 92.6518 85.9039 92.5689C83.5887 92.4759 81.2704 92.5053 78.9539 92.5053C78.6854 92.5053 78.4119 92.528 78.1528 92.4416C77.8224 92.3315 77.437 92.0606 77.2774 91.7413C77.0448 91.2762 77.9685 91.0065 78.2536 90.8871C79.7638 90.2549 81.8217 90.3992 83.421 90.5211C84.1035 90.5731 83.9223 91.0572 83.4634 91.301C83.2146 91.4331 82.9274 91.6193 82.6411 91.6405C82.4577 91.6541 81.9054 91.6458 82.0893 91.6458C82.6677 91.6458 83.3063 91.3683 83.8507 91.2161C85.0479 90.8813 86.2294 90.5881 87.3788 90.1179" stroke="#285430" stroke-opacity="0.79" stroke-width="3" stroke-linecap="round"/>
</g>
</g>
<defs>
<clipPath id="clip0_2477_2860">
<rect width="120" height="120" fill="white"/>
</clipPath>
<clipPath id="clip1_2477_2860">
<rect width="100" height="100" fill="white" transform="translate(-17 10)"/>
</clipPath>
<clipPath id="clip2_2477_2860">
<rect width="100" height="100" fill="white" transform="translate(37 10)"/>
</clipPath>
</defs>
</svg>
