<svg xmlns="http://www.w3.org/2000/svg" viewBox="0 0 188.12 404.98">
  <defs>
    <style>
      .cls-1 {
        fill: #5f8d4e;
      }

      .cls-2 {
        fill: #285430;
      }

      .cls-3 {
        fill: none;
      }
    </style>
  </defs>
  <g id="Capa_2" data-name="Capa 2">
    <g id="Logo1">
      <g>
        <path class="cls-1" d="M102.12,158.75a51.18,51.18,0,0,0-8.81-.77A50,50,0,0,0,67.88,251C60.56,310.24,89,395,92.05,404.16l.11.35c.06.2.11.34.13.41-4.83-12-11.23-24.45-18-37.94-12-24-30-45-45.35-64.49C19,289.89,14.15,278.1,9.31,264c-8.42-24.58-22-73.64,17-124,55-71,66.22-139,66-140C113.5,41.64,115.47,107.29,102.12,158.75Z"/>
        <path class="cls-2" d="M176.31,264c-3.73,7.69-12.3,25.95-21,38-13,18-30.35,40.21-45,65-7.75,13.11-12.35,25.85-18,38l0-.06c0-.07-.07-.21-.13-.41l-.11-.35C89,395,60.56,310.24,67.88,251c.4.24.81.47,1.22.7a50,50,0,1,0,33-93C115.47,107.29,113.5,41.64,92.32,0c70.05,75.67,81,117,87,139C189.79,177.39,193.31,229,176.31,264Z"/>
        <path class="cls-3" d="M143.31,208A50,50,0,0,1,69.1,251.73c-.41-.23-.82-.46-1.22-.7A50,50,0,0,1,93.31,158a51.18,51.18,0,0,1,8.81.77A50,50,0,0,1,143.31,208Z"/>
      </g>
    </g>
  </g>
</svg>
