<svg xmlns="http://www.w3.org/2000/svg" viewBox="0 0 512 512">
  <defs>
    <style>
      .cls-1 {
        fill: #fff;
      }

      .cls-2 {
        fill: #6e8b53;
      }

      .cls-3 {
        fill: #3b5535;
      }

      .cls-4 {
        fill: none;
      }
    </style>
  </defs>
  <g id="Capa_2" data-name="Capa 2">
    <g id="Capa_1-2" data-name="Capa 1">
      <rect class="cls-1" width="512" height="512" rx="147.57"/>
      <g>
        <path class="cls-2" d="M265.24,205.85a59,59,0,0,0-10.1-.88A57.33,57.33,0,0,0,226,311.66c-8.39,67.88,24.19,165,27.72,175.57,0,.15.09.29.12.4s.13.39.15.47c-5.54-13.71-12.87-28-20.61-43.5-13.76-27.52-34.4-51.6-52-73.94-11.39-14.45-17-28-22.53-44.16-9.65-28.18-25.24-84.43,19.49-142.17C241.38,102.92,254.25,24.94,254,23.83,278.29,71.57,280.55,146.85,265.24,205.85Z"/>
        <path class="cls-3" d="M350.31,326.5c-4.28,8.82-14.1,29.76-24.08,43.57-14.91,20.64-34.8,46.11-51.6,74.53-8.88,15-14.16,29.64-20.63,43.57a.14.14,0,0,1,0-.07c0-.08-.08-.24-.15-.47s-.08-.25-.12-.4c-3.53-10.56-36.11-107.69-27.72-175.57l1.4.8a57.34,57.34,0,1,0,37.86-106.61c15.31-59,13.05-134.28-11.23-182,80.32,86.76,92.86,134.13,99.74,159.35C365.76,227.22,369.8,286.37,350.31,326.5Z"/>
        <path class="cls-4" d="M312.47,262.29a57.34,57.34,0,0,1-85.09,50.17l-1.4-.8A57.33,57.33,0,0,1,255.14,205a59,59,0,0,1,10.1.88A57.36,57.36,0,0,1,312.47,262.29Z"/>
      </g>
    </g>
  </g>
</svg>
